<svg width="2306" height="1412" xmlns="http://www.w3.org/2000/svg" xmlns:xlink="http://www.w3.org/1999/xlink" xml:space="preserve" overflow="hidden"><defs><linearGradient x1="447.208" y1="1371" x2="2245.79" y2="1371" gradientUnits="userSpaceOnUse" spreadMethod="reflect" id="stroke0"><stop offset="0" stop-color="#B4C7E7" stop-opacity="1"/><stop offset="0.47" stop-color="#ABC0E4" stop-opacity="1"/><stop offset="0.69" stop-color="#ABC0E4" stop-opacity="1"/><stop offset="1" stop-color="#4472C4" stop-opacity="1"/></linearGradient><linearGradient x1="447.208" y1="1955" x2="2245.79" y2="1955" gradientUnits="userSpaceOnUse" spreadMethod="reflect" id="stroke1"><stop offset="0" stop-color="#B4C7E7" stop-opacity="1"/><stop offset="0.47" stop-color="#ABC0E4" stop-opacity="1"/><stop offset="0.69" stop-color="#ABC0E4" stop-opacity="1"/><stop offset="1" stop-color="#4472C4" stop-opacity="1"/></linearGradient><linearGradient x1="447.208" y1="1663" x2="2245.79" y2="1663" gradientUnits="userSpaceOnUse" spreadMethod="reflect" id="stroke2"><stop offset="0" stop-color="#B4C7E7" stop-opacity="1"/><stop offset="0.47" stop-color="#ABC0E4" stop-opacity="1"/><stop offset="0.69" stop-color="#ABC0E4" stop-opacity="1"/><stop offset="1" stop-color="#4472C4" stop-opacity="1"/></linearGradient><linearGradient x1="447.208" y1="1078" x2="2245.79" y2="1078" gradientUnits="userSpaceOnUse" spreadMethod="reflect" id="stroke3"><stop offset="0" stop-color="#B4C7E7" stop-opacity="1"/><stop offset="0.47" stop-color="#ABC0E4" stop-opacity="1"/><stop offset="0.69" stop-color="#ABC0E4" stop-opacity="1"/><stop offset="1" stop-color="#4472C4" stop-opacity="1"/></linearGradient><linearGradient x1="447.208" y1="786" x2="2245.79" y2="786" gradientUnits="userSpaceOnUse" spreadMethod="reflect" id="stroke4"><stop offset="0" stop-color="#B4C7E7" stop-opacity="1"/><stop offset="0.47" stop-color="#ABC0E4" stop-opacity="1"/><stop offset="0.69" stop-color="#ABC0E4" stop-opacity="1"/><stop offset="1" stop-color="#4472C4" stop-opacity="1"/></linearGradient><linearGradient x1="48.2168" y1="55.5807" x2="71.5764" y2="35.5313" gradientUnits="userSpaceOnUse" spreadMethod="pad" id="fill5"><stop offset="0" stop-color="#006AC2" stop-opacity="1"/><stop offset="1" stop-color="#2BBAFF" stop-opacity="1"/></linearGradient><linearGradient x1="38.9347" y1="56.3084" x2="50.3299" y2="44.9136" gradientUnits="userSpaceOnUse" spreadMethod="pad" id="fill6"><stop offset="0" stop-color="#B3E6FF" stop-opacity="1"/><stop offset="1" stop-color="#4EC2FF" stop-opacity="1"/></linearGradient><linearGradient x1="28.518" y1="57.2866" x2="39.913" y2="45.8919" gradientUnits="userSpaceOnUse" spreadMethod="pad" id="fill7"><stop offset="0" stop-color="#B3E6FF" stop-opacity="1"/><stop offset="1" stop-color="#4EC2FF" stop-opacity="1"/></linearGradient><linearGradient x1="3.63464" y1="76.1134" x2="31.1871" y2="48.5609" gradientUnits="userSpaceOnUse" spreadMethod="pad" id="fill8"><stop offset="0" stop-color="#B3E6FF" stop-opacity="1"/><stop offset="1" stop-color="#4EC2FF" stop-opacity="1"/></linearGradient><linearGradient x1="79.2696" y1="28.2737" x2="103.315" y2="4.22834" gradientUnits="userSpaceOnUse" spreadMethod="pad" id="fill9"><stop offset="0" stop-color="#004D8D" stop-opacity="1"/><stop offset="1" stop-color="#006BF1" stop-opacity="1"/></linearGradient><linearGradient x1="67.4346" y1="39.2286" x2="78.8297" y2="27.8335" gradientUnits="userSpaceOnUse" spreadMethod="pad" id="fill10"><stop offset="0" stop-color="#004D8D" stop-opacity="1"/><stop offset="1" stop-color="#006BF1" stop-opacity="1"/></linearGradient><linearGradient x1="73.6407" y1="34.0397" x2="85.0354" y2="22.6446" gradientUnits="userSpaceOnUse" spreadMethod="pad" id="fill11"><stop offset="0" stop-color="#004D8D" stop-opacity="1"/><stop offset="1" stop-color="#006BF1" stop-opacity="1"/></linearGradient></defs><g transform="translate(-444 -664)"><g><path d="M449.5 1265.73C449.5 1259.53 454.529 1254.5 460.732 1254.5L2232.27 1254.5C2238.47 1254.5 2243.5 1259.53 2243.5 1265.73L2243.5 1476.27C2243.5 1482.47 2238.47 1487.5 2232.27 1487.5L460.732 1487.5C454.529 1487.5 449.5 1482.47 449.5 1476.27Z" stroke="url(#stroke0)" stroke-width="4.58333" stroke-linecap="butt" stroke-linejoin="miter" stroke-miterlimit="8" fill="#DAE3F3" fill-rule="evenodd" fill-opacity="0.352941"/><path d="M449.5 1849.73C449.5 1843.53 454.529 1838.5 460.732 1838.5L2232.27 1838.5C2238.47 1838.5 2243.5 1843.53 2243.5 1849.73L2243.5 2060.27C2243.5 2066.47 2238.47 2071.5 2232.27 2071.5L460.732 2071.5C454.529 2071.5 449.5 2066.47 449.5 2060.27Z" stroke="url(#stroke1)" stroke-width="4.58333" stroke-linecap="butt" stroke-linejoin="miter" stroke-miterlimit="8" fill="#DAE3F3" fill-rule="evenodd" fill-opacity="0.34902"/><path d="M449.5 1557.73C449.5 1551.53 454.529 1546.5 460.732 1546.5L2232.27 1546.5C2238.47 1546.5 2243.5 1551.53 2243.5 1557.73L2243.5 1768.27C2243.5 1774.47 2238.47 1779.5 2232.27 1779.5L460.732 1779.5C454.529 1779.5 449.5 1774.47 449.5 1768.27Z" stroke="url(#stroke2)" stroke-width="4.58333" stroke-linecap="butt" stroke-linejoin="miter" stroke-miterlimit="8" fill="#DAE3F3" fill-rule="evenodd" fill-opacity="0.345098"/><text fill="#767171" fill-opacity="1" font-family="Segoe UI,Segoe UI_MSFontService,sans-serif" font-style="normal" font-variant="normal" font-weight="400" font-stretch="normal" font-size="73" text-anchor="start" direction="ltr" writing-mode="lr-tb" unicode-bidi="normal" text-decoration="none" transform="matrix(1 0 0 1 519.824 1059)">Utilization</text><text fill="#767171" fill-opacity="1" font-family="Segoe UI Light,Segoe UI Light_MSFontService,sans-serif" font-style="normal" font-variant="normal" font-weight="300" font-stretch="normal" font-size="50" text-anchor="start" direction="ltr" writing-mode="lr-tb" unicode-bidi="normal" text-decoration="none" transform="matrix(1 0 0 1 519.824 1147)">Trending how and where costs are accruing</text><path d="M449.5 972.732C449.5 966.529 454.529 961.5 460.732 961.5L2232.27 961.5C2238.47 961.5 2243.5 966.529 2243.5 972.732L2243.5 1183.27C2243.5 1189.47 2238.47 1194.5 2232.27 1194.5L460.732 1194.5C454.529 1194.5 449.5 1189.47 449.5 1183.27Z" stroke="url(#stroke3)" stroke-width="4.58333" stroke-linecap="butt" stroke-linejoin="miter" stroke-miterlimit="8" fill="none" fill-rule="evenodd"/><text fill="#767171" fill-opacity="1" font-family="Segoe UI,Segoe UI_MSFontService,sans-serif" font-style="normal" font-variant="normal" font-weight="400" font-stretch="normal" font-size="73" text-anchor="start" direction="ltr" writing-mode="lr-tb" unicode-bidi="normal" text-decoration="none" transform="matrix(1 0 0 1 519.824 766)">Visualization</text><text fill="#767171" fill-opacity="1" font-family="Segoe UI Light,Segoe UI Light_MSFontService,sans-serif" font-style="normal" font-variant="normal" font-weight="300" font-stretch="normal" font-size="50" text-anchor="start" direction="ltr" writing-mode="lr-tb" unicode-bidi="normal" text-decoration="none" transform="matrix(1 0 0 1 519.824 854)">Reporting on costs across environments and business divisions</text><path d="M449.5 680.732C449.5 674.529 454.529 669.5 460.732 669.5L2232.27 669.5C2238.47 669.5 2243.5 674.529 2243.5 680.732L2243.5 891.268C2243.5 897.471 2238.47 902.5 2232.27 902.5L460.732 902.5C454.529 902.5 449.5 897.471 449.5 891.268Z" stroke="url(#stroke4)" stroke-width="4.58333" stroke-linecap="butt" stroke-linejoin="miter" stroke-miterlimit="8" fill="none" fill-rule="evenodd"/><text fill="#767171" fill-opacity="1" font-family="Segoe UI,Segoe UI_MSFontService,sans-serif" font-style="normal" font-variant="normal" font-weight="400" font-stretch="normal" font-size="73" text-anchor="start" direction="ltr" writing-mode="lr-tb" unicode-bidi="normal" text-decoration="none" transform="matrix(1 0 0 1 519.824 1352)">Commercial</text><text fill="#767171" fill-opacity="1" font-family="Segoe UI Light,Segoe UI Light_MSFontService,sans-serif" font-style="normal" font-variant="normal" font-weight="300" font-stretch="normal" font-size="50" text-anchor="start" direction="ltr" writing-mode="lr-tb" unicode-bidi="normal" text-decoration="none" transform="matrix(1 0 0 1 519.824 1440)">Licensing, discounting, and incentives offered by cloud providers</text><text fill="#767171" fill-opacity="1" font-family="Segoe UI,Segoe UI_MSFontService,sans-serif" font-style="normal" font-variant="normal" font-weight="400" font-stretch="normal" font-size="73" text-anchor="start" direction="ltr" writing-mode="lr-tb" unicode-bidi="normal" text-decoration="none" transform="matrix(1 0 0 1 519.824 1644)">Configuration</text><text fill="#767171" fill-opacity="1" font-family="Segoe UI Light,Segoe UI Light_MSFontService,sans-serif" font-style="normal" font-variant="normal" font-weight="300" font-stretch="normal" font-size="50" text-anchor="start" direction="ltr" writing-mode="lr-tb" unicode-bidi="normal" text-decoration="none" transform="matrix(1 0 0 1 519.824 1732)">How services are deployed and configured within the environment</text><text fill="#767171" fill-opacity="1" font-family="Segoe UI,Segoe UI_MSFontService,sans-serif" font-style="normal" font-variant="normal" font-weight="400" font-stretch="normal" font-size="73" text-anchor="start" direction="ltr" writing-mode="lr-tb" unicode-bidi="normal" text-decoration="none" transform="matrix(1 0 0 1 519.824 1936)">Engineering</text><text fill="#767171" fill-opacity="1" font-family="Segoe UI Light,Segoe UI Light_MSFontService,sans-serif" font-style="normal" font-variant="normal" font-weight="300" font-stretch="normal" font-size="50" text-anchor="start" direction="ltr" writing-mode="lr-tb" unicode-bidi="normal" text-decoration="none" transform="matrix(1 0 0 1 519.824 2024)">Deep profiling of how services are configured and utilized</text><path d="M0 0C27.8904 0 50.5 0.000428914 50.5 0.000958006L50.5 145.999C50.5 146 73.1097 146 101 146 73.1097 146 50.5 146.001 50.5 146.001L50.5 291.999C50.5 292 27.8904 292 7.71815e-15 292" stroke="#4472C4" stroke-width="4.58333" stroke-linecap="butt" stroke-linejoin="miter" stroke-miterlimit="8" stroke-opacity="1" fill="none" fill-rule="evenodd" transform="matrix(1 -1.22465e-16 -1.22465e-16 -1 2281.5 1077.5)"/><text fill="#767171" fill-opacity="1" font-family="Segoe UI Light,Segoe UI Light_MSFontService,sans-serif" font-style="normal" font-variant="normal" font-weight="300" font-stretch="normal" font-size="55" text-anchor="start" direction="ltr" writing-mode="lr-tb" unicode-bidi="normal" text-decoration="none" transform="matrix(6.12323e-17 1 -1 6.12323e-17 2427.09 781)">Existing Tools</text><path d="M0 0C28.1668 0 51.0005 0.000571395 51.0005 0.00127625L51.0005 583.499C51.0005 583.499 73.8342 583.5 102.001 583.5 73.8342 583.5 51.0005 583.501 51.0005 583.501L51.0005 1167C51.0005 1167 28.1668 1167 9.69339e-15 1167" stroke="#4472C4" stroke-width="4.58333" stroke-linecap="butt" stroke-linejoin="miter" stroke-miterlimit="8" stroke-opacity="1" fill="none" fill-rule="evenodd" transform="matrix(1 -1.22465e-16 -1.22465e-16 -1 2529.5 1951.5)"/><text fill="#404040" fill-opacity="1" font-family="Segoe UI,Segoe UI_MSFontService,sans-serif" font-style="normal" font-variant="normal" font-weight="700" font-stretch="normal" font-size="64" text-anchor="start" direction="ltr" writing-mode="lr-tb" unicode-bidi="normal" text-decoration="none" transform="matrix(6.12323e-17 1 -1 6.12323e-17 2664.81 1269)">Cloud</text><text fill="#404040" fill-opacity="1" font-family="Segoe UI,Segoe UI_MSFontService,sans-serif" font-style="normal" font-variant="normal" font-weight="400" font-stretch="normal" font-size="64" text-anchor="start" direction="ltr" writing-mode="lr-tb" unicode-bidi="normal" text-decoration="none" transform="matrix(6.12323e-17 1 -1 6.12323e-17 2664.81 1445)">DIET</text><g><g><g><path d="M104.426 49.8149C104.426 52.0746 104.083 54.255 103.452 56.3101 102.112 60.6959 99.4384 64.4969 95.9089 67.2537 95.7168 67.4082 95.5204 67.5586 95.3199 67.7048L27.5403 67.7048 27.5403 56.3101 16.1455 56.3101 16.1455 44.9153 9.26191 44.9153C10.8199 41.8243 13.2133 39.2388 16.1455 37.4302 18.9859 35.6842 22.3191 34.6566 25.8988 34.6566 26.4376 34.6566 26.9639 34.6901 27.4902 34.736L27.4902 34.6566C27.4902 34.2724 27.5028 33.8964 27.5194 33.5205 27.5236 33.3284 27.5278 33.1404 27.5403 32.9524L27.5403 32.9483C27.7534 29.1054 28.689 25.4548 30.201 22.1257 32.1977 17.7358 35.2092 13.9055 38.9351 10.9357 39.0228 10.8647 39.1105 10.7979 39.1982 10.7268 42.448 8.19975 46.2198 6.31181 50.3299 5.26757 52.7233 4.66191 55.2253 4.33606 57.8067 4.33606 59.1349 4.33606 60.4423 4.42382 61.7246 4.59086 65.839 5.12137 69.6943 6.47889 73.1194 8.488L73.1194 22.1216 84.5142 22.1216 84.5142 33.5205 97.2497 33.5205C100.504 36.5071 102.851 40.4543 103.858 44.9153 104.217 46.4942 104.426 48.1274 104.426 49.8149Z" fill="url(#fill5)" fill-rule="nonzero" transform="matrix(-6.20486e-17 -1.01333 -1 6.12323e-17 2728.75 1236.9)"/><path d="M38.9348 44.9136 27.5398 44.9136 27.5398 33.5186 38.9348 33.5186 38.9348 44.9136ZM50.3299 67.7035 61.7246 67.7035 61.7246 56.3084 50.3299 56.3084 50.3299 67.7035ZM50.3299 44.9136 38.9348 44.9136 38.9348 56.3084 50.3299 56.3084 50.3299 44.9136Z" fill="url(#fill6)" fill-rule="nonzero" transform="matrix(-6.20486e-17 -1.01333 -1 6.12323e-17 2728.75 1236.9)"/><path d="M27.5398 56.3084 27.5398 44.9136 38.9348 44.9136 38.9348 56.3084 27.5398 56.3084ZM50.3299 56.3084 38.9348 56.3084 38.9348 67.7035 50.3299 67.7035 50.3299 56.3084ZM27.5398 44.9136 27.5398 33.5186 27.518 33.5186C27.504 33.8965 27.4893 34.2743 27.4893 34.6556 27.4893 34.6826 27.4912 34.7091 27.4913 34.736 26.9648 34.6914 26.4357 34.6556 25.8976 34.6556 22.3173 34.6556 18.9849 35.6822 16.1449 37.4315L16.1449 44.9136 27.5398 44.9136Z" fill="url(#fill7)" fill-rule="nonzero" transform="matrix(-6.20486e-17 -1.01333 -1 6.12323e-17 2728.75 1236.9)"/><path d="M15.2353 58.8634 25.0606 58.8634 25.0606 68.6889 15.2353 68.6889 15.2353 58.8634ZM0 72.4787 11.3949 72.4787 11.3949 61.0839 0 61.0839 0 72.4787ZM16.1449 44.9136 16.1449 56.3088 27.5398 56.3088 27.5398 44.9136 16.1449 44.9136ZM9.26104 44.9136 16.1449 44.9136 16.1449 37.4315C13.2122 39.2376 10.8218 41.8248 9.26104 44.9136ZM27.5398 56.3088 27.5398 67.7035 38.9348 67.7035 38.9348 56.3088 27.5398 56.3088ZM13.3273 81.5748 18.5954 81.5748 18.5954 76.3064 13.3273 76.3064 13.3273 81.5748ZM5.69742 56.3088 12.5445 56.3088 12.5445 49.4615 5.69742 49.4615 5.69742 56.3088Z" fill="url(#fill8)" fill-rule="nonzero" transform="matrix(-6.20486e-17 -1.01333 -1 6.12323e-17 2728.75 1236.9)"/><path d="M87.3319 7.19795 87.3319 17.0233 77.5065 17.0233 77.5065 7.19795 87.3319 7.19795ZM95.9093 44.9136 103.859 44.9136C102.849 40.4543 100.504 36.5052 97.2505 33.5186L95.9093 33.5186 95.9093 44.9136ZM73.1198 10.7287 73.1198 8.48884C69.6935 6.47872 65.8398 5.12033 61.7246 4.58935L61.7246 10.7287 73.1198 10.7287ZM87.3319 31.7184 98.7267 31.7184 98.7267 20.3234 87.3319 20.3234 87.3319 31.7184ZM93.8187 5.26819 99.0867 5.26819 99.0867 0 93.8187 0 93.8187 5.26819ZM91.1405 17.0233 97.9874 17.0233 97.9874 10.1761 91.1405 10.1761 91.1405 17.0233Z" fill="url(#fill9)" fill-rule="nonzero" transform="matrix(-6.20486e-17 -1.01333 -1 6.12323e-17 2728.75 1236.9)"/><path d="M61.7246 10.7287 61.7246 22.1237 50.3299 22.1237 50.3299 10.7287 61.7246 10.7287ZM61.7246 22.1237 61.7246 33.5186 73.1198 33.5186 73.1198 22.1237 61.7246 22.1237ZM39.1986 10.7287 50.3299 10.7287 50.3299 5.26819C46.2181 6.31139 42.4463 8.19892 39.1986 10.7287ZM95.9093 56.3088 95.9093 67.2558C99.438 64.4965 102.11 60.6946 103.454 56.3088L95.9093 56.3088ZM73.1198 33.5186 73.1198 44.9136 84.5146 44.9136 84.5146 33.5186 73.1198 33.5186ZM84.5146 44.9136 84.5146 56.3088 95.9093 56.3088 95.9093 44.9136 84.5146 44.9136Z" fill="url(#fill10)" fill-rule="nonzero" transform="matrix(-6.20486e-17 -1.01333 -1 6.12323e-17 2728.75 1236.9)"/><path d="M61.7246 22.1237 61.7246 10.7287 73.1198 10.7287 73.1198 22.1237 61.7246 22.1237ZM61.7246 10.7287 61.7246 4.58935C60.4423 4.42395 59.1358 4.33644 57.8083 4.33644 55.2274 4.33644 52.722 4.6612 50.3299 5.26815L50.3299 10.7287 61.7246 10.7287ZM95.9093 56.3084 103.454 56.3084C104.084 54.255 104.424 52.075 104.424 49.8153 104.424 48.1282 104.217 46.4921 103.859 44.9136L95.9093 44.9136 95.9093 56.3084ZM73.1198 33.5186 84.5146 33.5186 84.5146 22.1237 73.1198 22.1237 73.1198 33.5186ZM95.9093 44.9136 95.9093 33.5186 84.5146 33.5186 84.5146 44.9136 95.9093 44.9136Z" fill="url(#fill11)" fill-rule="nonzero" transform="matrix(-6.20486e-17 -1.01333 -1 6.12323e-17 2728.75 1236.9)"/></g></g></g></g></g></svg>