<svg xmlns="http://www.w3.org/2000/svg" viewBox="0 0 64 64">
  <defs>
    <linearGradient id="g" x1="0" y1="0" x2="64" y2="64" gradientUnits="userSpaceOnUse">
      <stop offset="0" stop-color="#FF7A00"/>
      <stop offset=".4" stop-color="#E0218A"/>
      <stop offset=".7" stop-color="#9B5CFF"/>
      <stop offset="1" stop-color="#21B7FF"/>
    </linearGradient>
  </defs>
  <path fill="url(#g)" d="M48 27a13 13 0 0 0-24.7-4A11 11 0 0 0 6 31a10 10 0 0 0 10 10h31a10 10 0 0 0 1-19.9z" opacity=".18"/>
  <path fill="none" stroke="url(#g)" stroke-width="4.5" stroke-linecap="round" stroke-linejoin="round" d="M47 40a9 9 0 0 0-1-18 13 13 0 0 0-25-3 10.5 10.5 0 0 0-4 20"/>
  <text x="20.5" y="44" font-family="'Space Grotesk',sans-serif" font-weight="700" font-size="26" fill="url(#g)">Ai</text>
</svg>
